<?xml version="1.0" encoding="UTF-8" standalone="no"?>
<!DOCTYPE svg PUBLIC "-//W3C//DTD SVG 1.1//EN" "http://www.w3.org/Graphics/SVG/1.1/DTD/svg11.dtd">
<svg version="1.1" xmlns="http://www.w3.org/2000/svg" xmlns:xlink="http://www.w3.org/1999/xlink" preserveAspectRatio="xMidYMid meet" viewBox="0 0 640 640" width="640" height="640"><defs><path d="M319.01 637.02C143.49 637.02 0.99 494.52 0.99 319.01C0.99 143.49 143.49 0.99 319.01 0.99C494.52 0.99 637.02 143.49 637.02 319.01C637.02 494.52 494.52 637.02 319.01 637.02Z" id="dCXv6VpcT"></path><linearGradient id="gradientb4LVsklbCV" gradientUnits="userSpaceOnUse" x1="319.01" y1="0.99" x2="319.01" y2="637.02"><stop style="stop-color: #2a2a2a;stop-opacity: 1" offset="0%"></stop><stop style="stop-color: #0f0f0f;stop-opacity: 1" offset="100%"></stop></linearGradient><path d="M319.01 587.33C170.91 587.33 50.68 467.1 50.68 319.01C50.68 170.92 170.91 50.68 319.01 50.68C467.1 50.68 587.33 170.92 587.33 319.01C587.33 467.1 467.1 587.33 319.01 587.33Z" id="d1HCWszqT4"></path><linearGradient id="gradientciysIKsX0" gradientUnits="userSpaceOnUse" x1="319.01" y1="50.68" x2="319.01" y2="587.33"><stop style="stop-color: #818181;stop-opacity: 1" offset="0%"></stop><stop style="stop-color: #000000;stop-opacity: 1" offset="100%"></stop></linearGradient><path d="M319.01 552.55C190.11 552.55 85.47 447.9 85.47 319.01C85.47 190.11 190.11 85.47 319.01 85.47C447.9 85.47 552.55 190.11 552.55 319.01C552.55 447.9 447.9 552.55 319.01 552.55Z" id="a1eGrhKMt0"></path><linearGradient id="gradienthvVA98Pr8" gradientUnits="userSpaceOnUse" x1="319.01" y1="85.47" x2="319.01" y2="552.55"><stop style="stop-color: #2a2a2a;stop-opacity: 1" offset="0%"></stop><stop style="stop-color: #0f0f0f;stop-opacity: 1" offset="100%"></stop></linearGradient><path d="M319.01 507.83C214.8 507.83 130.19 423.21 130.19 319.01C130.19 214.8 214.8 130.19 319.01 130.19C423.21 130.19 507.83 214.8 507.83 319.01C507.83 423.21 423.21 507.83 319.01 507.83Z" id="k50us0qPt"></path><linearGradient id="gradientb234SKyYur" gradientUnits="userSpaceOnUse" x1="319.01" y1="130.19" x2="319.01" y2="507.83"><stop style="stop-color: #818181;stop-opacity: 1" offset="0%"></stop><stop style="stop-color: #000000;stop-opacity: 1" offset="100%"></stop></linearGradient><path d="M319.01 482.98C228.5 482.98 155.03 409.5 155.03 319.01C155.03 228.5 228.5 155.03 319.01 155.03C409.51 155.03 482.98 228.5 482.98 319.01C482.98 409.5 409.51 482.98 319.01 482.98Z" id="b2sirKJuw"></path><linearGradient id="gradientb5KkJgV2I" gradientUnits="userSpaceOnUse" x1="319.01" y1="155.03" x2="319.01" y2="482.98"><stop style="stop-color: #2a2a2a;stop-opacity: 1" offset="0%"></stop><stop style="stop-color: #0f0f0f;stop-opacity: 1" offset="100%"></stop></linearGradient><path d="M319.01 463.11C239.47 463.11 174.91 398.54 174.91 319.01C174.91 239.47 239.47 174.91 319.01 174.91C398.53 174.91 463.11 239.47 463.11 319.01C463.11 398.54 398.53 463.11 319.01 463.11Z" id="d1OTFI5nsq"></path><linearGradient id="gradientb8FO5pD3Z" gradientUnits="userSpaceOnUse" x1="319.01" y1="174.91" x2="319.01" y2="463.11"><stop style="stop-color: #818181;stop-opacity: 1" offset="0%"></stop><stop style="stop-color: #000000;stop-opacity: 1" offset="100%"></stop></linearGradient><path d="M319.01 443.23C250.44 443.23 194.78 387.57 194.78 319.01C194.78 250.44 250.44 194.78 319.01 194.78C387.57 194.78 443.23 250.44 443.23 319.01C443.23 387.57 387.57 443.23 319.01 443.23Z" id="demhUmgZ0"></path><linearGradient id="gradienta1qsDEWboJ" gradientUnits="userSpaceOnUse" x1="319.01" y1="194.78" x2="319.01" y2="443.23"><stop style="stop-color: #2a2a2a;stop-opacity: 1" offset="0%"></stop><stop style="stop-color: #0f0f0f;stop-opacity: 1" offset="100%"></stop></linearGradient><path d="M319.01 423.35C261.41 423.35 214.66 376.6 214.66 319.01C214.66 261.42 261.41 214.66 319.01 214.66C376.6 214.66 423.35 261.42 423.35 319.01C423.35 376.6 376.6 423.35 319.01 423.35Z" id="g37CdI3pM"></path><linearGradient id="gradientgvZm6yqm2" gradientUnits="userSpaceOnUse" x1="319.01" y1="214.66" x2="319.01" y2="423.35"><stop style="stop-color: #818181;stop-opacity: 1" offset="0%"></stop><stop style="stop-color: #000000;stop-opacity: 1" offset="100%"></stop></linearGradient><path d="M265 238C265 255.66 250.67 270 233 270C215.34 270 201 255.66 201 238C201 220.34 215.34 206 233 206C250.67 206 265 220.34 265 238Z" id="bN0PeFREg"></path><path d="M460.18 341L402.15 287.31L359.75 341L317.36 287.31L274.97 341L232.58 287.31L180.18 341L460.18 341Z" id="c2YBwFdER2"></path><path d="M350 238C350 255.66 335.66 270 318 270C300.34 270 286 255.66 286 238C286 220.34 300.34 206 318 206C335.66 206 350 220.34 350 238Z" id="a7QaoY6qz"></path><path d="M435 238C435 255.66 420.66 270 403 270C385.34 270 371 255.66 371 238C371 220.34 385.34 206 403 206C420.66 206 435 220.34 435 238Z" id="dkMUQx5Nf"></path><path d="M180 340L460 340L460 404L180 404L180 340Z" id="b1zI54EkQ6"></path><path d="" id="a11pcDLlyO"></path></defs><g><g><g><use xlink:href="#dCXv6VpcT" opacity="1" fill="url(#gradientb4LVsklbCV)"></use><g><use xlink:href="#dCXv6VpcT" opacity="1" fill-opacity="0" stroke="#000000" stroke-width="1" stroke-opacity="0"></use></g></g><g><use xlink:href="#d1HCWszqT4" opacity="1" fill="url(#gradientciysIKsX0)"></use><g><use xlink:href="#d1HCWszqT4" opacity="1" fill-opacity="0" stroke="#000000" stroke-width="1" stroke-opacity="0"></use></g></g><g><use xlink:href="#a1eGrhKMt0" opacity="1" fill="url(#gradienthvVA98Pr8)"></use><g><use xlink:href="#a1eGrhKMt0" opacity="1" fill-opacity="0" stroke="#000000" stroke-width="1" stroke-opacity="0"></use></g></g><g><use xlink:href="#k50us0qPt" opacity="1" fill="url(#gradientb234SKyYur)"></use><g><use xlink:href="#k50us0qPt" opacity="1" fill-opacity="0" stroke="#000000" stroke-width="1" stroke-opacity="0"></use></g></g><g><use xlink:href="#b2sirKJuw" opacity="1" fill="url(#gradientb5KkJgV2I)"></use><g><use xlink:href="#b2sirKJuw" opacity="1" fill-opacity="0" stroke="#000000" stroke-width="1" stroke-opacity="0"></use></g></g><g><use xlink:href="#d1OTFI5nsq" opacity="1" fill="url(#gradientb8FO5pD3Z)"></use><g><use xlink:href="#d1OTFI5nsq" opacity="1" fill-opacity="0" stroke="#000000" stroke-width="1" stroke-opacity="0"></use></g></g><g><use xlink:href="#demhUmgZ0" opacity="1" fill="url(#gradienta1qsDEWboJ)"></use><g><use xlink:href="#demhUmgZ0" opacity="1" fill-opacity="0" stroke="#000000" stroke-width="1" stroke-opacity="0"></use></g></g><g><use xlink:href="#g37CdI3pM" opacity="1" fill="url(#gradientgvZm6yqm2)"></use><g><use xlink:href="#g37CdI3pM" opacity="1" fill-opacity="0" stroke="#000000" stroke-width="1" stroke-opacity="0"></use></g></g><g><use xlink:href="#bN0PeFREg" opacity="1" fill="#fcff00" fill-opacity="1"></use></g><g><use xlink:href="#c2YBwFdER2" opacity="1" fill="#fcff00" fill-opacity="1"></use></g><g><use xlink:href="#a7QaoY6qz" opacity="1" fill="#fcff00" fill-opacity="1"></use></g><g><use xlink:href="#dkMUQx5Nf" opacity="1" fill="#fcff00" fill-opacity="1"></use></g><g><use xlink:href="#b1zI54EkQ6" opacity="1" fill="#fcff00" fill-opacity="1"></use></g><g><g><use xlink:href="#a11pcDLlyO" opacity="1" fill-opacity="0" stroke="#000000" stroke-width="1" stroke-opacity="1"></use></g></g></g></g></svg>