<?xml version="1.0" encoding="UTF-8" standalone="no"?>
<!DOCTYPE svg PUBLIC "-//W3C//DTD SVG 1.1//EN" "http://www.w3.org/Graphics/SVG/1.1/DTD/svg11.dtd">
<svg version="1.1" xmlns="http://www.w3.org/2000/svg" xmlns:xlink="http://www.w3.org/1999/xlink" preserveAspectRatio="xMidYMid meet" viewBox="0 0 640 640" width="640" height="640"><defs><path d="M319.01 637.02C143.49 637.02 0.99 494.52 0.99 319.01C0.99 143.49 143.49 0.99 319.01 0.99C494.52 0.99 637.02 143.49 637.02 319.01C637.02 494.52 494.52 637.02 319.01 637.02Z" id="bYE8zOXPj"></path><linearGradient id="gradientblteIb9Gk" gradientUnits="userSpaceOnUse" x1="319.01" y1="0.99" x2="319.01" y2="637.02"><stop style="stop-color: #d72020;stop-opacity: 1" offset="0%"></stop><stop style="stop-color: #ad1111;stop-opacity: 1" offset="100%"></stop></linearGradient><path d="M319.01 587.33C170.91 587.33 50.68 467.1 50.68 319.01C50.68 170.92 170.91 50.68 319.01 50.68C467.1 50.68 587.33 170.92 587.33 319.01C587.33 467.1 467.1 587.33 319.01 587.33Z" id="a1pZt4g6Wd"></path><linearGradient id="gradientdFGw741x" gradientUnits="userSpaceOnUse" x1="319.01" y1="50.68" x2="319.01" y2="587.33"><stop style="stop-color: #fb7070;stop-opacity: 1" offset="0%"></stop><stop style="stop-color: #6b0101;stop-opacity: 1" offset="100%"></stop></linearGradient><path d="M319.01 552.55C190.11 552.55 85.47 447.9 85.47 319.01C85.47 190.11 190.11 85.47 319.01 85.47C447.9 85.47 552.55 190.11 552.55 319.01C552.55 447.9 447.9 552.55 319.01 552.55Z" id="hKF840P8"></path><linearGradient id="gradienta1sIdPYmK" gradientUnits="userSpaceOnUse" x1="319.01" y1="85.47" x2="319.01" y2="552.55"><stop style="stop-color: #d72020;stop-opacity: 1" offset="0%"></stop><stop style="stop-color: #ad1111;stop-opacity: 1" offset="100%"></stop></linearGradient><path d="M319.01 507.83C214.8 507.83 130.19 423.21 130.19 319.01C130.19 214.8 214.8 130.19 319.01 130.19C423.22 130.19 507.83 214.8 507.83 319.01C507.83 423.21 423.22 507.83 319.01 507.83Z" id="d60x91fTg"></path><linearGradient id="gradienteMoqxZjVb" gradientUnits="userSpaceOnUse" x1="319.01" y1="130.19" x2="319.01" y2="507.83"><stop style="stop-color: #fb7070;stop-opacity: 1" offset="0%"></stop><stop style="stop-color: #6b0101;stop-opacity: 1" offset="100%"></stop></linearGradient><path d="M319.01 482.98C228.5 482.98 155.03 409.5 155.03 319.01C155.03 228.5 228.5 155.03 319.01 155.03C409.51 155.03 482.98 228.5 482.98 319.01C482.98 409.5 409.51 482.98 319.01 482.98Z" id="c29QadDo1u"></path><linearGradient id="gradienta4NZPqBsPJ" gradientUnits="userSpaceOnUse" x1="319.01" y1="155.03" x2="319.01" y2="482.98"><stop style="stop-color: #d72020;stop-opacity: 1" offset="0%"></stop><stop style="stop-color: #ad1111;stop-opacity: 1" offset="100%"></stop></linearGradient><path d="M319.01 463.11C239.47 463.11 174.91 398.54 174.91 319.01C174.91 239.47 239.47 174.91 319.01 174.91C398.53 174.91 463.11 239.47 463.11 319.01C463.11 398.54 398.53 463.11 319.01 463.11Z" id="aQ1Ewovy8"></path><linearGradient id="gradientcIlkWx1cB" gradientUnits="userSpaceOnUse" x1="319.01" y1="174.91" x2="319.01" y2="463.11"><stop style="stop-color: #fb7070;stop-opacity: 1" offset="0%"></stop><stop style="stop-color: #6b0101;stop-opacity: 1" offset="100%"></stop></linearGradient><path d="M319.01 443.23C250.44 443.23 194.78 387.57 194.78 319.01C194.78 250.44 250.44 194.78 319.01 194.78C387.57 194.78 443.23 250.44 443.23 319.01C443.23 387.57 387.57 443.23 319.01 443.23Z" id="b14rwp7p42"></path><linearGradient id="gradienta3VSz2Su79" gradientUnits="userSpaceOnUse" x1="319.01" y1="194.78" x2="319.01" y2="443.23"><stop style="stop-color: #d72020;stop-opacity: 1" offset="0%"></stop><stop style="stop-color: #ad1111;stop-opacity: 1" offset="100%"></stop></linearGradient><path d="M319.01 423.35C261.41 423.35 214.66 376.6 214.66 319.01C214.66 261.42 261.41 214.66 319.01 214.66C376.6 214.66 423.35 261.42 423.35 319.01C423.35 376.6 376.6 423.35 319.01 423.35Z" id="dYB1IiocB"></path><linearGradient id="gradiente1797kLlEo" gradientUnits="userSpaceOnUse" x1="319.01" y1="214.66" x2="319.01" y2="423.35"><stop style="stop-color: #fb7070;stop-opacity: 1" offset="0%"></stop><stop style="stop-color: #6b0101;stop-opacity: 1" offset="100%"></stop></linearGradient><path d="M265 238C265 255.66 250.67 270 233 270C215.34 270 201 255.66 201 238C201 220.34 215.34 206 233 206C250.67 206 265 220.34 265 238Z" id="fi4pVa5Lu"></path><path d="M350 238C350 255.66 335.66 270 318 270C300.34 270 286 255.66 286 238C286 220.34 300.34 206 318 206C335.66 206 350 220.34 350 238Z" id="b2BzSBAxLy"></path><path d="M435 238C435 255.66 420.66 270 403 270C385.34 270 371 255.66 371 238C371 220.34 385.34 206 403 206C420.66 206 435 220.34 435 238Z" id="dm15x9CDa"></path><path d="M180 340L460 340L460 404L180 404L180 340Z" id="b47NTOTZmT"></path><path d="" id="bOBtMcFAG"></path><path d="M460.18 341L402.15 287.31L359.75 341L317.36 287.31L274.97 341L232.58 287.31L180.18 341L460.18 341Z" id="d1ASoxaV8h"></path></defs><g><g><g><use xlink:href="#bYE8zOXPj" opacity="1" fill="url(#gradientblteIb9Gk)"></use><g><use xlink:href="#bYE8zOXPj" opacity="1" fill-opacity="0" stroke="#000000" stroke-width="1" stroke-opacity="0"></use></g></g><g><use xlink:href="#a1pZt4g6Wd" opacity="1" fill="url(#gradientdFGw741x)"></use><g><use xlink:href="#a1pZt4g6Wd" opacity="1" fill-opacity="0" stroke="#000000" stroke-width="1" stroke-opacity="0"></use></g></g><g><use xlink:href="#hKF840P8" opacity="1" fill="url(#gradienta1sIdPYmK)"></use><g><use xlink:href="#hKF840P8" opacity="1" fill-opacity="0" stroke="#000000" stroke-width="1" stroke-opacity="0"></use></g></g><g><use xlink:href="#d60x91fTg" opacity="1" fill="url(#gradienteMoqxZjVb)"></use><g><use xlink:href="#d60x91fTg" opacity="1" fill-opacity="0" stroke="#000000" stroke-width="1" stroke-opacity="0"></use></g></g><g><use xlink:href="#c29QadDo1u" opacity="1" fill="url(#gradienta4NZPqBsPJ)"></use><g><use xlink:href="#c29QadDo1u" opacity="1" fill-opacity="0" stroke="#000000" stroke-width="1" stroke-opacity="0"></use></g></g><g><use xlink:href="#aQ1Ewovy8" opacity="1" fill="url(#gradientcIlkWx1cB)"></use><g><use xlink:href="#aQ1Ewovy8" opacity="1" fill-opacity="0" stroke="#000000" stroke-width="1" stroke-opacity="0"></use></g></g><g><use xlink:href="#b14rwp7p42" opacity="1" fill="url(#gradienta3VSz2Su79)"></use><g><use xlink:href="#b14rwp7p42" opacity="1" fill-opacity="0" stroke="#000000" stroke-width="1" stroke-opacity="0"></use></g></g><g><use xlink:href="#dYB1IiocB" opacity="1" fill="url(#gradiente1797kLlEo)"></use><g><use xlink:href="#dYB1IiocB" opacity="1" fill-opacity="0" stroke="#000000" stroke-width="1" stroke-opacity="0"></use></g></g><g><use xlink:href="#fi4pVa5Lu" opacity="1" fill="#fcff00" fill-opacity="1"></use></g><g><use xlink:href="#b2BzSBAxLy" opacity="1" fill="#fcff00" fill-opacity="1"></use></g><g><use xlink:href="#dm15x9CDa" opacity="1" fill="#fcff00" fill-opacity="1"></use></g><g><use xlink:href="#b47NTOTZmT" opacity="1" fill="#fcff00" fill-opacity="1"></use></g><g><g><use xlink:href="#bOBtMcFAG" opacity="1" fill-opacity="0" stroke="#000000" stroke-width="1" stroke-opacity="1"></use></g></g><g><use xlink:href="#d1ASoxaV8h" opacity="1" fill="#fcff00" fill-opacity="1"></use></g></g></g></svg>