<?xml version="1.0" encoding="UTF-8" standalone="no"?>
<!DOCTYPE svg PUBLIC "-//W3C//DTD SVG 1.1//EN" "http://www.w3.org/Graphics/SVG/1.1/DTD/svg11.dtd">
<svg version="1.1" xmlns="http://www.w3.org/2000/svg" xmlns:xlink="http://www.w3.org/1999/xlink" preserveAspectRatio="xMidYMid meet" viewBox="-1 -0.9999999999998295 644 643.9999999999998" width="640" height="640"><defs><path d="M640 320C640 496.61 496.61 640 320 640C143.39 640 0 496.61 0 320C0 143.39 143.39 0 320 0C496.61 0 640 143.39 640 320Z" id="athk3Iuy"></path><linearGradient id="gradienta2wI2n5zM0" gradientUnits="userSpaceOnUse" x1="320" y1="0" x2="320" y2="640"><stop style="stop-color: #2a2a2a;stop-opacity: 1" offset="0%"></stop><stop style="stop-color: #0f0f0f;stop-opacity: 1" offset="100%"></stop></linearGradient><path d="M590 320C590 469.02 469.02 590 320 590C170.98 590 50 469.02 50 320C50 170.99 170.98 50 320 50C469.02 50 590 170.99 590 320Z" id="b4McCwDPQ"></path><linearGradient id="gradienta1texGiidj" gradientUnits="userSpaceOnUse" x1="320" y1="50" x2="320" y2="590"><stop style="stop-color: #818181;stop-opacity: 1" offset="0%"></stop><stop style="stop-color: #000000;stop-opacity: 1" offset="100%"></stop></linearGradient><path d="M555 320C555 449.7 449.7 555 320 555C190.3 555 85 449.7 85 320C85 190.3 190.3 85 320 85C449.7 85 555 190.3 555 320Z" id="aBCR1B9yH"></path><linearGradient id="gradientc5NP4xp3K" gradientUnits="userSpaceOnUse" x1="320" y1="85" x2="320" y2="555"><stop style="stop-color: #2a2a2a;stop-opacity: 1" offset="0%"></stop><stop style="stop-color: #0f0f0f;stop-opacity: 1" offset="100%"></stop></linearGradient><path d="M510 320C510 424.86 424.86 510 320 510C215.14 510 130 424.86 130 320C130 215.14 215.14 130 320 130C424.86 130 510 215.14 510 320Z" id="j3Di2Iv7mM"></path><linearGradient id="gradientcAiqId4jb" gradientUnits="userSpaceOnUse" x1="320" y1="130" x2="320" y2="510"><stop style="stop-color: #818181;stop-opacity: 1" offset="0%"></stop><stop style="stop-color: #000000;stop-opacity: 1" offset="100%"></stop></linearGradient><path d="M485 320C485 411.06 411.07 485 320 485C228.93 485 155 411.06 155 320C155 228.93 228.93 155 320 155C411.07 155 485 228.93 485 320Z" id="a1PPsRPrfo"></path><linearGradient id="gradientaHguk7iDy" gradientUnits="userSpaceOnUse" x1="320" y1="155" x2="320" y2="485"><stop style="stop-color: #2a2a2a;stop-opacity: 1" offset="0%"></stop><stop style="stop-color: #0f0f0f;stop-opacity: 1" offset="100%"></stop></linearGradient><path d="M465 320C465 400.03 400.02 465 320 465C239.97 465 175 400.03 175 320C175 239.97 239.97 175 320 175C400.02 175 465 239.97 465 320Z" id="b6H6VxTfA"></path><linearGradient id="gradienta1cQIHhTGK" gradientUnits="userSpaceOnUse" x1="320" y1="175" x2="320" y2="465"><stop style="stop-color: #818181;stop-opacity: 1" offset="0%"></stop><stop style="stop-color: #000000;stop-opacity: 1" offset="100%"></stop></linearGradient><path d="M445 320C445 388.99 388.99 445 320 445C251.01 445 195 388.99 195 320C195 251.01 251.01 195 320 195C388.99 195 445 251.01 445 320Z" id="b1lPLpGlP8"></path><linearGradient id="gradientfuBed4fkC" gradientUnits="userSpaceOnUse" x1="320" y1="195" x2="320" y2="445"><stop style="stop-color: #2a2a2a;stop-opacity: 1" offset="0%"></stop><stop style="stop-color: #0f0f0f;stop-opacity: 1" offset="100%"></stop></linearGradient><path d="M425 320C425 377.95 377.95 425 320 425C262.04 425 215 377.95 215 320C215 262.05 262.04 215 320 215C377.95 215 425 262.05 425 320Z" id="a4ta1K8FuV"></path><linearGradient id="gradiente2SM5Aj9OD" gradientUnits="userSpaceOnUse" x1="320" y1="215" x2="320" y2="425"><stop style="stop-color: #818181;stop-opacity: 1" offset="0%"></stop><stop style="stop-color: #000000;stop-opacity: 1" offset="100%"></stop></linearGradient></defs><g><g><use xlink:href="#athk3Iuy" opacity="1" fill="url(#gradienta2wI2n5zM0)"></use></g><g><use xlink:href="#b4McCwDPQ" opacity="1" fill="url(#gradienta1texGiidj)"></use></g><g><use xlink:href="#aBCR1B9yH" opacity="1" fill="url(#gradientc5NP4xp3K)"></use></g><g><use xlink:href="#j3Di2Iv7mM" opacity="1" fill="url(#gradientcAiqId4jb)"></use></g><g><use xlink:href="#a1PPsRPrfo" opacity="1" fill="url(#gradientaHguk7iDy)"></use></g><g><use xlink:href="#b6H6VxTfA" opacity="1" fill="url(#gradienta1cQIHhTGK)"></use></g><g><use xlink:href="#b1lPLpGlP8" opacity="1" fill="url(#gradientfuBed4fkC)"></use></g><g><use xlink:href="#a4ta1K8FuV" opacity="1" fill="url(#gradiente2SM5Aj9OD)"></use></g></g></svg>