<?xml version="1.0" encoding="UTF-8" standalone="no"?>
<!DOCTYPE svg PUBLIC "-//W3C//DTD SVG 1.1//EN" "http://www.w3.org/Graphics/SVG/1.1/DTD/svg11.dtd">
<svg version="1.1" xmlns="http://www.w3.org/2000/svg" xmlns:xlink="http://www.w3.org/1999/xlink" preserveAspectRatio="xMidYMid meet" viewBox="-1 -0.9999999999998295 644 643.9999999999998" width="640" height="640"><defs><path d="M640 320C640 496.61 496.61 640 320 640C143.39 640 0 496.61 0 320C0 143.39 143.39 0 320 0C496.61 0 640 143.39 640 320Z" id="fH1bgaHW4"></path><linearGradient id="gradientc2LX6AtAqU" gradientUnits="userSpaceOnUse" x1="320" y1="0" x2="320" y2="640"><stop style="stop-color: #d72020;stop-opacity: 1" offset="0%"></stop><stop style="stop-color: #ad1111;stop-opacity: 1" offset="100%"></stop></linearGradient><path d="M590 320C590 469.02 469.02 590 320 590C170.98 590 50 469.02 50 320C50 170.99 170.98 50 320 50C469.02 50 590 170.99 590 320Z" id="b25SG8tzTC"></path><linearGradient id="gradiente1bc2PWUf" gradientUnits="userSpaceOnUse" x1="320" y1="50" x2="320" y2="590"><stop style="stop-color: #fb7070;stop-opacity: 1" offset="0%"></stop><stop style="stop-color: #6b0101;stop-opacity: 1" offset="100%"></stop></linearGradient><path d="M555 320C555 449.7 449.7 555 320 555C190.3 555 85 449.7 85 320C85 190.3 190.3 85 320 85C449.7 85 555 190.3 555 320Z" id="hnmMRlRYi"></path><linearGradient id="gradientb5R0ASUIxo" gradientUnits="userSpaceOnUse" x1="320" y1="85" x2="320" y2="555"><stop style="stop-color: #d72020;stop-opacity: 1" offset="0%"></stop><stop style="stop-color: #ad1111;stop-opacity: 1" offset="100%"></stop></linearGradient><path d="M510 320C510 424.86 424.87 510 320 510C215.14 510 130 424.86 130 320C130 215.14 215.14 130 320 130C424.87 130 510 215.14 510 320Z" id="czm4LrNRC"></path><linearGradient id="gradientb1qkWqLyR1" gradientUnits="userSpaceOnUse" x1="320" y1="130" x2="320" y2="510"><stop style="stop-color: #fb7070;stop-opacity: 1" offset="0%"></stop><stop style="stop-color: #6b0101;stop-opacity: 1" offset="100%"></stop></linearGradient><path d="M485 320C485 411.06 411.07 485 320 485C228.93 485 155 411.06 155 320C155 228.93 228.93 155 320 155C411.07 155 485 228.93 485 320Z" id="c1G6G59apo"></path><linearGradient id="gradienta2QKvD02Z" gradientUnits="userSpaceOnUse" x1="320" y1="155" x2="320" y2="485"><stop style="stop-color: #d72020;stop-opacity: 1" offset="0%"></stop><stop style="stop-color: #ad1111;stop-opacity: 1" offset="100%"></stop></linearGradient><path d="M465 320C465 400.03 400.02 465 320 465C239.97 465 175 400.03 175 320C175 239.97 239.97 175 320 175C400.02 175 465 239.97 465 320Z" id="aJCwkoZHo"></path><linearGradient id="gradienta2bGF9aOwh" gradientUnits="userSpaceOnUse" x1="320" y1="175" x2="320" y2="465"><stop style="stop-color: #fb7070;stop-opacity: 1" offset="0%"></stop><stop style="stop-color: #6b0101;stop-opacity: 1" offset="100%"></stop></linearGradient><path d="M445 320C445 388.99 388.99 445 320 445C251.01 445 195 388.99 195 320C195 251.01 251.01 195 320 195C388.99 195 445 251.01 445 320Z" id="fXlPw55zQ"></path><linearGradient id="gradientb4hAREBkgO" gradientUnits="userSpaceOnUse" x1="320" y1="195" x2="320" y2="445"><stop style="stop-color: #d72020;stop-opacity: 1" offset="0%"></stop><stop style="stop-color: #ad1111;stop-opacity: 1" offset="100%"></stop></linearGradient><path d="M425 320C425 377.95 377.95 425 320 425C262.04 425 215 377.95 215 320C215 262.05 262.04 215 320 215C377.95 215 425 262.05 425 320Z" id="c7y7OAJxep"></path><linearGradient id="gradientb3QnITO1Gr" gradientUnits="userSpaceOnUse" x1="320" y1="215" x2="320" y2="425"><stop style="stop-color: #fb7070;stop-opacity: 1" offset="0%"></stop><stop style="stop-color: #6b0101;stop-opacity: 1" offset="100%"></stop></linearGradient></defs><g><g><use xlink:href="#fH1bgaHW4" opacity="1" fill="url(#gradientc2LX6AtAqU)"></use></g><g><use xlink:href="#b25SG8tzTC" opacity="1" fill="url(#gradiente1bc2PWUf)"></use></g><g><use xlink:href="#hnmMRlRYi" opacity="1" fill="url(#gradientb5R0ASUIxo)"></use></g><g><use xlink:href="#czm4LrNRC" opacity="1" fill="url(#gradientb1qkWqLyR1)"></use></g><g><use xlink:href="#c1G6G59apo" opacity="1" fill="url(#gradienta2QKvD02Z)"></use></g><g><use xlink:href="#aJCwkoZHo" opacity="1" fill="url(#gradienta2bGF9aOwh)"></use></g><g><use xlink:href="#fXlPw55zQ" opacity="1" fill="url(#gradientb4hAREBkgO)"></use></g><g><use xlink:href="#c7y7OAJxep" opacity="1" fill="url(#gradientb3QnITO1Gr)"></use></g></g></svg>